<?xml version="1.0" encoding="iso-8859-1"?>
<!-- Generator: Adobe Illustrator 19.0.0, SVG Export Plug-In . SVG Version: 6.00 Build 0)  -->
<svg version="1.1" id="Layer_1" xmlns="http://www.w3.org/2000/svg" xmlns:xlink="http://www.w3.org/1999/xlink" x="0px" y="0px"
	 viewBox="0 0 512 512" style="enable-background:new 0 0 512 512;" xml:space="preserve">
<g>
	<g>
		<g>
			<path d="M116.668,376.414c4.932,1.715,8.875,5.692,10.556,10.65c1.195,3.558,4.523,5.803,8.081,5.803
				c0.905,0,1.826-0.145,2.731-0.461c4.471-1.502,6.861-6.349,5.35-10.812c-3.354-9.907-11.238-17.869-21.12-21.308
				c-4.454-1.545-9.301,0.819-10.854,5.265C109.858,369.997,112.222,374.861,116.668,376.414z"/>
			<path d="M247.467,256c0-37.641-30.626-68.267-68.267-68.267S110.933,218.359,110.933,256s30.626,68.267,68.267,68.267
				S247.467,293.641,247.467,256z M128,256c0-28.228,22.972-51.2,51.2-51.2c28.237,0,51.2,22.972,51.2,51.2
				c0,28.237-22.963,51.2-51.2,51.2C150.972,307.2,128,284.237,128,256z"/>
			<path d="M34.133,392.533c0,37.641,30.626,68.267,68.267,68.267c37.641,0,68.267-30.626,68.267-68.267
				c0-37.641-30.626-68.267-68.267-68.267C64.759,324.267,34.133,354.893,34.133,392.533z M153.6,392.533
				c0,28.237-22.963,51.2-51.2,51.2c-28.228,0-51.2-22.963-51.2-51.2c0-28.228,22.972-51.2,51.2-51.2
				C130.637,341.333,153.6,364.305,153.6,392.533z"/>
			<path d="M500.659,345.651c-1.98-3.84-43.639-77.85-78.234-139.255l-51.942-92.143c-13.619-24.158-20.087-35.627-23.885-41.062
				l0.538-0.273C329.506,38.468,294.588,17.067,256,17.067c-38.545,0-73.489,21.393-91.034,55.543
				c-6.093,10.795-149.265,264.55-153.694,273.169C3.797,360.337,0,376.064,0,392.533c0,56.465,45.935,102.4,102.4,102.4h273.067
				c4.719,0,8.533-3.823,8.533-8.533c0-4.71-3.814-8.533-8.533-8.533H102.4c-47.044,0-85.333-38.281-85.333-85.333
				c0-13.73,3.157-26.837,9.387-38.955c3.422-6.665,101.828-181.214,153.54-272.879C194.756,51.977,223.881,34.133,256,34.133
				c32.145,0,61.244,17.835,75.938,46.558c0.085,0.162,0.171,0.316,0.265,0.478c2.338,4.087,149.871,265.677,153.293,272.307
				c6.263,12.151,9.438,25.293,9.438,39.057c0,47.053-38.281,85.333-85.333,85.333c-4.71,0-8.533,3.823-8.533,8.533
				c0,4.71,3.823,8.533,8.533,8.533c56.474,0,102.4-45.935,102.4-102.4C512,376.252,508.075,360.038,500.659,345.651z"/>
			<path d="M184.823,239.881c4.932,1.715,8.875,5.692,10.547,10.65c1.195,3.55,4.523,5.803,8.081,5.803
				c0.913,0,1.826-0.145,2.731-0.461c4.471-1.502,6.861-6.349,5.35-10.812c-3.345-9.907-11.238-17.869-21.112-21.308
				c-4.471-1.553-9.318,0.819-10.863,5.265S180.369,238.327,184.823,239.881z"/>
			<path d="M338.423,239.881c4.932,1.715,8.875,5.692,10.547,10.65c1.195,3.55,4.523,5.803,8.081,5.803
				c0.913,0,1.826-0.145,2.731-0.461c4.471-1.502,6.861-6.349,5.35-10.812c-3.345-9.907-11.238-17.869-21.111-21.308
				c-4.463-1.553-9.31,0.819-10.863,5.265C331.614,233.463,333.969,238.327,338.423,239.881z"/>
			<path d="M401.067,256c0-37.641-30.626-68.267-68.267-68.267c-37.641,0-68.267,30.626-68.267,68.267s30.626,68.267,68.267,68.267
				C370.441,324.267,401.067,293.641,401.067,256z M281.6,256c0-28.228,22.972-51.2,51.2-51.2c28.237,0,51.2,22.972,51.2,51.2
				c0,28.237-22.963,51.2-51.2,51.2C304.572,307.2,281.6,284.237,281.6,256z"/>
			<path d="M423.868,376.414c4.932,1.715,8.875,5.692,10.556,10.65c1.195,3.558,4.523,5.803,8.081,5.803
				c0.905,0,1.826-0.145,2.731-0.461c4.471-1.502,6.861-6.349,5.35-10.812c-3.354-9.907-11.238-17.869-21.12-21.308
				c-4.454-1.545-9.31,0.819-10.854,5.265C417.058,369.997,419.422,374.861,423.868,376.414z"/>
			<path d="M261.623,103.347c4.932,1.715,8.875,5.692,10.547,10.65c1.195,3.558,4.523,5.803,8.081,5.803
				c0.913,0,1.826-0.145,2.731-0.461c4.471-1.502,6.861-6.349,5.35-10.812c-3.345-9.907-11.238-17.869-21.112-21.308
				c-4.454-1.544-9.318,0.819-10.863,5.265C254.814,96.93,257.169,101.794,261.623,103.347z"/>
			<path d="M409.6,460.8c37.641,0,68.267-30.626,68.267-68.267c0-37.641-30.626-68.267-68.267-68.267s-68.267,30.626-68.267,68.267
				C341.333,430.174,371.959,460.8,409.6,460.8z M409.6,341.333c28.237,0,51.2,22.972,51.2,51.2c0,28.237-22.963,51.2-51.2,51.2
				c-28.228,0-51.2-22.963-51.2-51.2C358.4,364.305,381.372,341.333,409.6,341.333z"/>
			<path d="M324.267,119.467c0-37.641-30.626-68.267-68.267-68.267c-37.641,0-68.267,30.626-68.267,68.267
				c0,37.64,30.626,68.267,68.267,68.267C293.641,187.733,324.267,157.107,324.267,119.467z M204.8,119.467
				c0-28.228,22.972-51.2,51.2-51.2c28.237,0,51.2,22.972,51.2,51.2c0,28.237-22.963,51.2-51.2,51.2
				C227.772,170.667,204.8,147.703,204.8,119.467z"/>
			<path d="M261.623,376.414c4.932,1.715,8.875,5.692,10.547,10.65c1.195,3.558,4.523,5.803,8.081,5.803
				c0.913,0,1.826-0.145,2.731-0.461c4.471-1.502,6.861-6.349,5.35-10.812c-3.345-9.907-11.238-17.869-21.112-21.308
				c-4.454-1.545-9.318,0.819-10.863,5.265C254.814,369.997,257.169,374.861,261.623,376.414z"/>
			<path d="M256,460.8c37.641,0,68.267-30.626,68.267-68.267c0-37.641-30.626-68.267-68.267-68.267
				c-37.641,0-68.267,30.626-68.267,68.267C187.733,430.174,218.359,460.8,256,460.8z M256,341.333c28.237,0,51.2,22.972,51.2,51.2
				c0,28.237-22.963,51.2-51.2,51.2c-28.228,0-51.2-22.963-51.2-51.2C204.8,364.305,227.772,341.333,256,341.333z"/>
		</g>
	</g>
</g>
<g>
</g>
<g>
</g>
<g>
</g>
<g>
</g>
<g>
</g>
<g>
</g>
<g>
</g>
<g>
</g>
<g>
</g>
<g>
</g>
<g>
</g>
<g>
</g>
<g>
</g>
<g>
</g>
<g>
</g>
</svg>
