<?xml version="1.0" encoding="iso-8859-1"?>
<!-- Generator: Adobe Illustrator 19.0.0, SVG Export Plug-In . SVG Version: 6.00 Build 0)  -->
<svg version="1.1" id="Layer_1" xmlns="http://www.w3.org/2000/svg" xmlns:xlink="http://www.w3.org/1999/xlink" x="0px" y="0px"
	 viewBox="0 0 511.999 511.999" style="enable-background:new 0 0 511.999 511.999;" xml:space="preserve">
<g>
	<g>
		<g>
			<path d="M53.209,434.897c-3.143-3.143-8.24-3.144-11.383,0.001c-3.144,3.144-3.144,8.241,0.001,11.383l23.602,23.601
				c1.57,1.57,3.631,2.357,5.691,2.357s4.12-0.786,5.693-2.358c3.144-3.144,3.144-8.241-0.001-11.383L53.209,434.897z"/>
			<path d="M479.205,310.88c33.969-55.859,42.006-120.503,21.957-178.357c-1.456-4.2-6.044-6.425-10.243-4.97
				c-4.201,1.455-6.426,6.042-4.971,10.243c18.819,54.298,10.649,115.259-22.344,167.671c-3.759-0.74-7.639-1.138-11.611-1.138
				c-33.088,0-60.006,26.919-60.006,60.006c0,4.045,0.408,7.996,1.175,11.819l-4.098,2.434c-9.533,5.369-19.412,9.833-29.516,13.41
				L119.593,152.046c9.154-25.686,24.051-49.703,44.471-70.122C245.79,0.196,368.169-5.467,442.672,69.035
				c12.675,12.674,23.335,26.944,31.687,42.414c2.112,3.913,6.995,5.37,10.907,3.26c3.913-2.112,5.372-6.996,3.26-10.907
				c-9.093-16.844-20.69-32.372-34.468-46.151C415.1,18.694,362.889-1.63,307.001,0.423C250.63,2.494,195.824,27.396,152.68,70.539
				c-22.636,22.636-39.555,50.335-49.5,80.455c-0.272,0.595-0.473,1.213-0.592,1.845c-4.123,12.897-6.98,26.221-8.452,39.776
				c-4.688,43.134,4.591,87.022,26.172,124.322L6.32,430.923c-0.003,0.003-0.006,0.008-0.011,0.012l-0.488,0.488
				c-7.952,7.953-7.728,21.118,0.499,29.346l44.615,44.614c4.084,4.084,9.458,6.334,15.134,6.334c0,0,0.001,0,0.002,0
				c5.404,0,10.451-2.072,14.213-5.832l59.231-59.23l55.253-55.253c31.544,18.286,66.814,27.466,102.15,27.464
				c34.47-0.002,68.998-8.743,100.134-26.299c0.053-0.029,0.105-0.06,0.157-0.091l1.385-0.822
				c9.958,19.386,30.148,32.689,53.4,32.689c33.088,0,60.006-26.919,60.006-60.007C512,341.041,498.648,320.819,479.205,310.88z
				 M187.828,375.573L69.398,494.002c-0.945,0.946-2.201,1.466-3.539,1.466c-1.336,0-2.593-0.521-3.539-1.467l-44.616-44.615
				c-1.95-1.949-1.951-5.12-0.005-7.071l68.841-68.841l49.595-49.594c0.001-0.001,0.003-0.003,0.004-0.005l25.133-25.133
				c0.923-0.923,2.048-1.117,2.829-1.117c1.354,0,2.72,0.59,3.747,1.617l44.615,44.616c1.952,1.951,2.177,4.903,0.501,6.578
				L187.828,375.573z M206.602,379.568l17.748-17.748c7.952-7.953,7.727-21.118-0.501-29.347l-44.616-44.616
				c-4.084-4.083-9.458-6.331-15.131-6.331c-5.405,0-10.453,2.073-14.214,5.833l-17.763,17.763
				c-23.4-42.475-28.975-90.817-17.809-135.582L342.04,397.263C296.739,408.484,248.337,402.499,206.602,379.568z M451.993,408.243
				c-24.211,0-43.907-19.697-43.907-43.907c0-24.21,19.697-43.907,43.907-43.907c24.211,0,43.907,19.697,43.907,43.907
				C495.899,388.546,476.203,408.243,451.993,408.243z"/>
		</g>
	</g>
</g>
<g>
</g>
<g>
</g>
<g>
</g>
<g>
</g>
<g>
</g>
<g>
</g>
<g>
</g>
<g>
</g>
<g>
</g>
<g>
</g>
<g>
</g>
<g>
</g>
<g>
</g>
<g>
</g>
<g>
</g>
</svg>
